# xmcd
#
# Track frame offsets:
#	150
#	20955
#	29781
#	41947
#	53206
#	63775
#	89052
#	102789
#	115754
#	140581
#	151286
#	180124
#	190999
#	203235
#	214074
#	225978
#	246066
#	258231
#
# Disc length: 3566 seconds
#
# Revision: 2
# Processed by: cddbd v1.5.2PL0 Copyright (c) Steve Scherf et al.
# Submitted via: audiograbber 1.83.01
#
DISCID=fd0dec12
DTITLE=Various Artist - Raw Blues Vol.3 CD1
DYEAR=1900
DGENRE=Blues
TTITLE0=Pinetop Perkins - Got My Mojo Working
TTITLE1=John Lee Hooker - Hobo Blues
TTITLE2=Ray Charles  - C.C. Rider
TTITLE3=Canned Heat - Spoonful
TTITLE4=Memphis Slim - Gotta Find My Baby
TTITLE5=Howlin' Wolf - I Didn't Mean to Hurt Your Feelings
TTITLE6=Muddy Waters - Hoochie, Coohie Man
TTITLE7=Jimmy Reed - Caress Me Baby
TTITLE8=Roy Brown - Boogie Woogie Blues
TTITLE9=Lightnin Hopkins - Nothing But the Blues
TTITLE10=Percy Mayfield - Every Day I Have the Blues
TTITLE11=Lightning Slim - My Babe
TTITLE12=Leadbelly - Goodnight Irene
TTITLE13=Big Joe Williams - Baby Please Don't Go
TTITLE14=James Cotton - South Side Boogie
TTITLE15=Pinetop Perkins - Just Keep on Drinking
TTITLE16=John Lee Hooker - Whiskey and Wimmen
TTITLE17=Memphis Slim - Rockin' the House
EXTD=
EXTT0=
EXTT1=
EXTT2=
EXTT3=
EXTT4=
EXTT5=
EXTT6=
EXTT7=
EXTT8=
EXTT9=
EXTT10=
EXTT11=
EXTT12=
EXTT13=
EXTT14=
EXTT15=
EXTT16=
EXTT17=
PLAYORDER=
